<?xml version="1.0" encoding="UTF-8" standalone="no"?>
<svg
   xmlns:dc="http://purl.org/dc/elements/1.1/"
   xmlns:cc="http://creativecommons.org/ns#"
   xmlns:rdf="http://www.w3.org/1999/02/22-rdf-syntax-ns#"
   xmlns:svg="http://www.w3.org/2000/svg"
   xmlns="http://www.w3.org/2000/svg"
   viewBox="0 0 585.33331 370.66666"
   height="370.66666"
   width="585.33331"
   xml:space="preserve"
   id="svg2"
   version="1.1"><metadata
     id="metadata8"><rdf:RDF><cc:Work
         rdf:about=""><dc:format>image/svg+xml</dc:format><dc:type
           rdf:resource="http://purl.org/dc/dcmitype/StillImage" /></cc:Work></rdf:RDF></metadata><defs
     id="defs6" /><g
     transform="matrix(1.3333333,0,0,-1.3333333,0,370.66667)"
     id="g10"><g
       transform="scale(0.1)"
       id="g12"><path
         id="path14"
         style="fill:#f58f19;fill-opacity:1;fill-rule:evenodd;stroke:none"
         d="m 2892.7,2278.79 c 0.54,-3.09 0.78,-6.21 0.78,-9.3 0.54,-2.07 0.78,-3.9 0.78,-5.47 -0.55,-4.14 -1.02,-8.04 -1.56,-11.68 v -3.08 c -1.06,-4.14 -2.58,-8.6 -4.69,-13.28 0,-1.53 -0.51,-2.86 -1.53,-3.87 -1.6,-3.59 -3.12,-6.99 -4.68,-10.12 -1.06,-1.01 -1.84,-2.3 -2.31,-3.87 -3.16,-4.14 -6.52,-8.04 -10.15,-11.67 l -151.76,-151.76 c 8.32,-4.14 15.82,-9.38 22.54,-15.59 l 466.21,-466.91 c 5.19,10.86 7.81,22.3 7.81,34.22 v 605.5 c -5.23,51.88 -33.52,80.12 -84.88,84.81 h -241.25 c 2.11,-4.14 3.4,-8.56 3.87,-13.24 0.54,-1.53 0.82,-3.09 0.82,-4.69" /><path
         id="path16"
         style="fill:#eb1c21;fill-opacity:1;fill-rule:evenodd;stroke:none"
         d="m 2161.13,2579.22 h 0.78 c 6.76,-4.14 12.47,-9.06 17.15,-14.81 0.51,-0.54 1.06,-1.01 1.53,-1.56 2.07,-2.54 4.45,-5.43 6.99,-8.51 1.56,-3.17 3.16,-6.25 4.69,-9.38 0.54,-1.01 1.01,-1.8 1.56,-2.3 1.52,-3.17 2.85,-6.49 3.9,-10.16 v -0.78 c 1.02,-3.09 1.84,-6.45 2.31,-10.08 0,-1.05 0.23,-2.07 0.78,-3.12 0.55,-3.64 0.82,-7.27 0.82,-10.86 v -214.81 c 8.24,3.09 17.38,4.65 27.23,4.65 h 659.14 c -4.14,10.9 -10.35,20.74 -18.67,29.57 l -428.05,428.05 c -39.92,33.16 -79.88,33.16 -119.84,0 l -170.4,-170.43 c 3.64,-1.6 7,-3.4 10.08,-5.47" /><path
         id="path18"
         style="fill:#eb1c21;fill-opacity:1;fill-rule:evenodd;stroke:none"
         d="m 2892.7,2279.57 c 0,1.6 -0.28,3.13 -0.82,4.69 0.54,-1.56 0.82,-3.09 0.82,-4.69" /><path
         id="path20"
         style="fill:#eb1c21;fill-opacity:1;fill-rule:evenodd;stroke:none"
         d="m 2886.48,2232.11 c 0.47,1.01 1.02,2.34 1.53,3.87 -0.51,-1.53 -1.06,-2.86 -1.53,-3.87" /><path
         id="path22"
         style="fill:#eb1c21;fill-opacity:1;fill-rule:evenodd;stroke:none"
         d="m 2878.71,2218.91 c 1.02,1.52 1.8,2.85 2.31,3.9 -0.51,-1.6 -1.29,-2.89 -2.31,-3.9" /><path
         id="path24"
         style="fill:#c2177d;fill-opacity:1;fill-rule:evenodd;stroke:none"
         d="m 1445.16,2271.02 c 3.08,0 6.25,0.31 9.33,0.78 h 5.43 c 4.18,0 8.09,-0.47 11.68,-1.53 h 2.35 c 5.19,-1.01 9.88,-2.38 13.98,-3.86 1.6,-0.55 2.89,-1.37 3.91,-2.39 3.63,-1.05 6.99,-2.57 10.15,-4.68 1.02,-1.02 2.31,-1.76 3.91,-2.31 4.1,-3.12 8.01,-6.52 11.64,-10.12 L 1669.3,2095.2 c 4.14,8.24 9.33,15.78 15.58,22.53 l 466.96,466.96 c -10.94,4.69 -22.31,6.99 -34.3,6.99 h -605.47 c -51.84,-4.69 -80.12,-32.97 -84.8,-84.84 v -240.43 c 4.14,1.48 8.59,2.85 13.2,3.86 1.56,0 3.16,0.24 4.69,0.75" /><path
         id="path26"
         style="fill:#c2177d;fill-opacity:1;fill-rule:evenodd;stroke:none"
         d="m 2201.64,2506.05 c 0,4.15 -0.27,8.05 -0.82,11.68 0.55,-3.63 0.82,-7.53 0.82,-11.68" /><path
         id="path28"
         style="fill:#c2177d;fill-opacity:1;fill-rule:evenodd;stroke:none"
         d="m 2187.58,2554.34 c -2.07,2.54 -4.38,5.43 -6.99,8.51 2.61,-2.54 4.92,-5.43 6.99,-8.51" /><path
         id="path30"
         style="fill:#c2177d;fill-opacity:1;fill-rule:evenodd;stroke:none"
         d="m 2161.13,2578.4 c -3.08,2.15 -6.44,3.9 -10.08,5.51 3.64,-1.61 7,-3.36 10.08,-5.51" /><path
         id="path32"
         style="fill:#c2177d;fill-opacity:1;fill-rule:evenodd;stroke:none"
         d="m 2200.04,2521.64 c -0.47,3.09 -1.29,6.48 -2.31,10.08 1.02,-3.09 1.84,-6.45 2.31,-10.08" /><path
         id="path34"
         style="fill:#c2177d;fill-opacity:1;fill-rule:evenodd;stroke:none"
         d="m 2161.91,2578.4 c 6.21,-4.1 11.92,-9.02 17.15,-14.77 -5.23,5.75 -10.94,10.67 -17.15,14.77" /><path
         id="path36"
         style="fill:#c2177d;fill-opacity:1;fill-rule:evenodd;stroke:none"
         d="m 2193.05,2544.18 c -1.57,3.12 -3.36,6.25 -5.47,9.37 2.11,-3.12 3.9,-6.25 5.47,-9.37" /><path
         id="path38"
         style="fill:#c2177d;fill-opacity:1;fill-rule:evenodd;stroke:none"
         d="m 2197.73,2531.72 c -1.05,3.63 -2.38,7.07 -3.9,10.16 1.52,-3.09 2.85,-6.53 3.9,-10.16" /><path
         id="path40"
         style="fill:#612e8f;fill-opacity:1;fill-rule:evenodd;stroke:none"
         d="m 1145.51,1538.75 v 0.7 c 4.14,6.29 9.14,12 14.8,17.15 l 1.57,1.6 c 2.61,2.07 5.46,4.38 8.55,7 3.12,1.52 6.21,3.08 9.34,4.64 1.01,0.51 1.79,1.06 2.34,1.53 3.12,1.6 6.44,2.89 10.12,3.9 h 0.78 c 3.08,1.02 6.48,1.84 10.08,2.39 1.05,0 2.14,0.23 3.16,0.7 3.59,0 7.23,0.31 10.9,0.82 h 214.02 c -2.62,8.32 -3.9,17.38 -3.9,27.23 v 659.18 c -10.9,-4.14 -20.79,-10.39 -29.61,-18.68 L 969.609,1818.12 c -33.16,-39.49 -33.16,-79.17 0,-119.14 l 170.511,-170.39 c 1.52,3.64 3.32,7 5.39,10.16" /><path
         id="path42"
         style="fill:#612e8f;fill-opacity:1;fill-rule:evenodd;stroke:none"
         d="m 1491.84,2264.02 c -1.02,0.55 -2.31,1.02 -3.91,1.57 1.6,-0.55 2.89,-1.02 3.91,-1.57" /><path
         id="path44"
         style="fill:#612e8f;fill-opacity:1;fill-rule:evenodd;stroke:none"
         d="m 1505.08,2257.03 c -1.56,1.02 -2.85,1.84 -3.87,2.31 1.02,-0.47 2.31,-1.29 3.87,-2.31" /><path
         id="path46"
         style="fill:#612e8f;fill-opacity:1;fill-rule:evenodd;stroke:none"
         d="m 1444.34,2271.02 c -1.49,0 -3.09,-0.24 -4.61,-0.75 1.52,0.51 3.12,0.75 4.61,0.75" /><path
         id="path48"
         style="fill:#26338f;fill-opacity:1;fill-rule:evenodd;stroke:none"
         d="m 1452.93,821.949 c 0,3.641 -0.23,7 -0.78,10.082 v 4.688 c 0,4.14 0.55,8.051 1.56,11.679 v 3.122 c 1.06,4.652 2.31,9.339 3.91,14.031 0.54,1.051 1.25,2.301 2.3,3.898 1.02,3.09 2.62,6.172 4.69,9.301 1.01,1.559 1.8,2.852 2.34,3.871 3.13,4.141 6.45,8.039 10.12,11.68 l 151.76,151.749 c -8.32,4.15 -15.82,9.61 -22.58,16.37 l -466.91,466.17 c -4.69,-10.35 -7,-21.79 -7,-34.25 V 888.91 c 4.61,-51.371 32.89,-79.648 84.81,-84.89 h 240.47 c -1.6,4.691 -2.85,9.101 -3.91,13.25 0,1.601 -0.23,3.121 -0.78,4.679" /><path
         id="path50"
         style="fill:#26338f;fill-opacity:1;fill-rule:evenodd;stroke:none"
         d="m 1145.51,1539.45 c -2.07,-3.08 -3.87,-6.44 -5.39,-10.07 1.52,3.63 3.32,6.99 5.39,10.07" /><path
         id="path52"
         style="fill:#26338f;fill-opacity:1;fill-rule:evenodd;stroke:none"
         d="m 1170.43,1565.2 c -3.09,-2.08 -5.94,-4.46 -8.55,-7 2.61,2.54 5.46,4.92 8.55,7" /><path
         id="path54"
         style="fill:#26338f;fill-opacity:1;fill-rule:evenodd;stroke:none"
         d="m 1145.51,1539.45 c 4.14,6.29 9.14,12 14.8,17.15 -5.66,-5.15 -10.66,-10.86 -14.8,-17.15" /><path
         id="path56"
         style="fill:#26338f;fill-opacity:1;fill-rule:evenodd;stroke:none"
         d="m 1179.77,1570.59 c -3.13,-1.53 -6.22,-3.32 -9.34,-5.39 3.12,2.07 6.21,3.86 9.34,5.39" /><path
         id="path58"
         style="fill:#26338f;fill-opacity:1;fill-rule:evenodd;stroke:none"
         d="m 1217.93,1579.18 c -4.18,0 -8.09,-0.27 -11.68,-0.82 3.59,0.55 7.5,0.82 11.68,0.82" /><path
         id="path60"
         style="fill:#26338f;fill-opacity:1;fill-rule:evenodd;stroke:none"
         d="m 1203.09,1578.36 c -3.09,-0.47 -6.45,-1.25 -10.08,-2.31 3.63,1.06 6.99,1.84 10.08,2.31" /><path
         id="path62"
         style="fill:#26338f;fill-opacity:1;fill-rule:evenodd;stroke:none"
         d="m 1192.23,1575.27 c -3.68,-1.01 -7,-2.3 -10.12,-3.9 3.12,1.6 6.44,2.89 10.12,3.9" /><path
         id="path64"
         style="fill:#02a1c7;fill-opacity:1;fill-rule:evenodd;stroke:none"
         d="m 2185.27,522.34 c 0,0.469 -0.23,0.781 -0.78,0.781 -6.21,4.149 -11.91,9.07 -17.11,14.77 -0.54,0 -1.01,0.23 -1.56,0.781 -2.07,3.129 -4.45,6.207 -6.99,9.34 -1.6,3.078 -3.13,6.25 -4.69,9.328 l -1.6,1.531 c -1.49,3.668 -2.85,7.301 -3.87,10.93 -1.05,3.597 -1.76,7 -2.3,10.121 0,1.019 -0.28,2.066 -0.82,3.09 0,3.629 -0.24,7.539 -0.78,11.679 v 214.02 c -8.25,-3.121 -17.31,-4.691 -27.23,-4.691 H 1458.4 c 4.14,-10.899 10.35,-20.739 18.67,-29.571 l 428.83,-428 c 39.37,-32.738 79.1,-32.738 119.02,0 l 170.43,170.43 c -3.59,1.562 -6.99,3.391 -10.08,5.461" /><path
         id="path66"
         style="fill:#02a1c7;fill-opacity:1;fill-rule:evenodd;stroke:none"
         d="m 1459.92,870.16 c -0.51,-1.531 -1.05,-2.859 -1.52,-3.871 0.47,1.012 1.01,2.34 1.52,3.871" /><path
         id="path68"
         style="fill:#02a1c7;fill-opacity:1;fill-rule:evenodd;stroke:none"
         d="m 1467.7,882.621 c -1.02,-1.019 -1.76,-2.312 -2.31,-3.871 0.55,1.559 1.29,2.852 2.31,3.871" /><path
         id="path70"
         style="fill:#02a1c7;fill-opacity:1;fill-rule:evenodd;stroke:none"
         d="m 1453.71,821.949 c 0,-1.558 0.24,-3.078 0.78,-4.679 -0.54,1.601 -0.78,3.121 -0.78,4.679" /><path
         id="path72"
         style="fill:#17ab4a;fill-opacity:1;fill-rule:evenodd;stroke:none"
         d="m 2902.03,831.25 c -3.63,-0.469 -6.99,-0.699 -10.15,-0.699 -1.53,-0.551 -3.09,-0.821 -4.61,-0.821 -4.18,0.5 -8.09,1.051 -11.68,1.52 h -3.17 c -4.61,1.051 -9.3,2.621 -13.98,4.691 -1.02,0 -2.31,0.539 -3.87,1.598 -3.12,1.481 -6.21,3.082 -9.37,4.652 -1.53,1.047 -2.86,1.789 -3.91,2.34 -4.14,3.09 -8.01,6.489 -11.68,10.078 l -151.76,151.761 c -4.1,-8.28 -9.53,-15.819 -16.29,-22.581 L 2195.35,517.66 c 10.39,-5.16 21.84,-7.781 34.3,-7.781 h 605.47 c 51.36,5.16 79.65,33.441 84.8,84.812 V 835.16 c -4.69,-1.058 -9.06,-2.07 -13.2,-3.129 -1.56,-0.472 -3.17,-0.781 -4.69,-0.781" /><path
         id="path74"
         style="fill:#17ab4a;fill-opacity:1;fill-rule:evenodd;stroke:none"
         d="m 2144.77,594.691 c 0,-3.64 0.31,-7.543 0.78,-11.679 -0.47,4.136 -0.78,8.039 -0.78,11.679" /><path
         id="path76"
         style="fill:#17ab4a;fill-opacity:1;fill-rule:evenodd;stroke:none"
         d="m 2153.36,557.34 c 1.56,-3.078 3.4,-6.25 5.47,-9.328 -2.07,3.078 -3.91,6.25 -5.47,9.328" /><path
         id="path78"
         style="fill:#17ab4a;fill-opacity:1;fill-rule:evenodd;stroke:none"
         d="m 2185.27,523.871 c 3.09,-2.07 6.49,-3.91 10.08,-5.43 -3.59,1.52 -6.99,3.36 -10.08,5.43" /><path
         id="path80"
         style="fill:#17ab4a;fill-opacity:1;fill-rule:evenodd;stroke:none"
         d="m 2183.67,523.121 c -6.17,4.149 -11.91,9.07 -17.07,14.77 5.16,-5.7 10.9,-10.621 17.07,-14.77" /><path
         id="path82"
         style="fill:#17ab4a;fill-opacity:1;fill-rule:evenodd;stroke:none"
         d="m 2148.67,570.551 c 1.02,-3.602 2.38,-7 3.87,-10.082 -1.49,3.082 -2.85,6.48 -3.87,10.082" /><path
         id="path84"
         style="fill:#17ab4a;fill-opacity:1;fill-rule:evenodd;stroke:none"
         d="m 2158.83,548.012 c 2.07,-3.133 4.37,-5.981 6.99,-8.602 -2.62,2.621 -4.92,5.469 -6.99,8.602" /><path
         id="path86"
         style="fill:#17ab4a;fill-opacity:1;fill-rule:evenodd;stroke:none"
         d="m 2146.37,580.699 c 0.54,-3.629 1.25,-6.988 2.3,-10.148 -1.05,3.16 -1.76,6.519 -2.3,10.148" /><path
         id="path88"
         style="fill:#f5eb11;fill-opacity:1;fill-rule:evenodd;stroke:none"
         d="m 3377.58,1402.54 -170.51,170.43 c -15,-31.68 -40.98,-48.52 -77.81,-50.59 h -214.03 c 3.17,-8.32 4.69,-17.38 4.69,-27.22 V 835.941 c 10.86,4.137 20.78,10.387 29.61,18.668 l 428.05,428.051 c 32.62,39.92 32.62,79.92 0,119.88" /><path
         id="path90"
         style="fill:#f5eb11;fill-opacity:1;fill-rule:evenodd;stroke:none"
         d="m 2841.29,845.309 c 1.05,-1.047 2.38,-1.829 3.91,-2.379 -1.53,0.55 -2.86,1.332 -3.91,2.379" /><path
         id="path92"
         style="fill:#f5eb11;fill-opacity:1;fill-rule:evenodd;stroke:none"
         d="m 2902.03,831.25 c 1.52,0 3.13,0.309 4.69,0.781 -1.56,-0.472 -3.17,-0.781 -4.69,-0.781" /><path
         id="path94"
         style="fill:#f5eb11;fill-opacity:1;fill-rule:evenodd;stroke:none"
         d="m 2854.57,837.539 c 1.56,-0.551 2.85,-1.059 3.87,-1.598 -1.02,0.539 -2.31,1.047 -3.87,1.598" /><path
         id="path96"
         style="fill:#ffc50a;fill-opacity:1;fill-rule:evenodd;stroke:none"
         d="m 2533.91,1579.96 h 62.26 c -8.28,97.03 -43.05,180.27 -104.29,249.81 l -43.6,-43.6 c 49.34,-58.12 77.81,-126.79 85.63,-206.21 m 183.67,474.73 c 8.32,-4.14 15.82,-9.38 22.54,-15.59 l 466.95,-466.91 c -15,-31.68 -40.98,-48.28 -77.81,-49.81 h -214.03 c -13.98,35.82 -40.66,54.73 -80.11,56.8 h -185.2 c -8.83,112.03 -48.83,208.05 -119.92,287.93 l 187.58,187.58" /><path
         id="path98"
         style="fill:#f0661e;fill-opacity:1;fill-rule:evenodd;stroke:none"
         d="m 2448.28,1785.39 44.38,44.38 c -75.2,85.07 -172.23,133.12 -291.02,143.98 v -62.27 c 101.17,-9.84 183.36,-51.91 246.64,-126.09 m -246.64,506.64 c 8.79,3.13 17.85,4.69 27.23,4.69 h 659.14 c 2.11,-4.14 3.4,-8.56 3.87,-13.24 0.54,-1.53 0.82,-3.09 0.82,-4.69 0.54,-3.09 0.78,-6.21 0.78,-9.3 0,-2.07 0.23,-3.9 0.78,-5.47 -0.55,-4.14 -1.02,-8.04 -1.56,-11.68 v -3.08 c -1.06,-4.69 -2.58,-9.06 -4.69,-13.28 -0.51,-1.53 -1.06,-2.86 -1.53,-3.87 -1.6,-3.59 -3.12,-6.99 -4.68,-10.12 -1.06,-1.01 -2.07,-2.3 -3.09,-3.87 -2.62,-4.14 -5.74,-8.04 -9.37,-11.67 L 2530,1867.11 c -85.04,94.96 -194.57,148.12 -328.36,159.53 v 265.39" /><path
         id="path100"
         style="fill:#c21957;fill-opacity:1;fill-rule:evenodd;stroke:none"
         d="m 2172.81,1913.01 c 9.85,0 19.46,-0.47 28.83,-1.53 v 62.27 c -9.37,0.51 -18.67,0.78 -28.05,0.78 -109.49,-2.58 -202.57,-37.62 -279.37,-105.04 l 43.59,-43.59 c 64.81,55.98 143.17,85.04 235,87.11 M 1669.3,2095.2 c 4.14,7.77 9.33,15.23 15.58,22.53 l 466.96,466.18 c -0.55,0 -0.55,0 0,0 3.08,-1.61 6.44,-3.36 10.07,-5.51 l 0.79,-0.7 c 6.21,-4.22 11.91,-8.83 17.1,-14.07 0.55,-0.47 0.79,-1.01 0.79,-1.52 2.61,-2.62 4.92,-5.47 6.99,-8.56 v -0.78 c 2.11,-2.61 3.9,-5.47 5.47,-8.59 0.54,-1.02 0.78,-1.84 0.78,-2.3 1.52,-3.64 2.85,-7 3.9,-10.16 0,-0.47 0.24,-0.74 0.79,-0.74 0.5,-3.17 1.28,-6.49 2.3,-10.16 v -3.09 c 0.55,-3.63 0.82,-7.22 0.82,-10.89 v -480.2 c -9.37,0.55 -18.67,0.82 -28.05,0.82 -123.98,-2.62 -229.57,-42.81 -316.75,-120.62 L 1669.3,2095.2" /><path
         id="path102"
         style="fill:#7d288f;fill-opacity:1;fill-rule:evenodd;stroke:none"
         d="m 1937.81,1825.9 -43.59,43.59 c -85.12,-75.27 -133.09,-172.26 -143.99,-291.13 h 61.49 c 10.39,101.72 52.38,184.26 126.09,247.54 m -505.86,-247.54 c -3.16,8.83 -4.68,17.97 -4.68,27.26 v 659.97 c 4.14,1.52 8.59,2.85 13.2,3.9 1.56,0 3.16,0.24 4.69,0.78 3.08,0.51 6.25,0.75 9.33,0.75 h 5.43 c 4.18,0 8.09,-0.24 11.68,-0.75 1.02,-0.54 1.8,-0.78 2.35,-0.78 5.19,-1.05 9.88,-2.38 13.98,-3.9 1.6,-0.55 2.89,-1.02 3.91,-1.57 3.63,-1.52 6.99,-3.36 10.15,-5.43 1.02,-1.01 2.31,-1.79 3.91,-2.34 4.1,-2.58 8.01,-5.98 11.64,-10.12 l 339.3,-339.29 c -94.93,-85.08 -148.13,-194.57 -159.57,-328.48 h -265.32" /><path
         id="path104"
         style="fill:#3a2e8f;fill-opacity:1;fill-rule:evenodd;stroke:none"
         d="m 1810.12,1551.13 c 0,9.38 0.31,18.71 0.82,28.05 h -61.49 c -0.54,-9.34 -0.78,-18.67 -0.78,-28.05 2.62,-109.45 37.62,-202.58 105.04,-279.37 l 43.59,43.59 c -56.52,65.35 -85.58,143.99 -87.18,235.78 m -181.29,-504.25 c -7.78,3.63 -15.31,8.78 -22.58,15.54 l -466.13,466.17 c 1.52,3.64 3.32,7 5.39,10.16 0,0.47 0.27,0.7 0.82,0.7 4.1,6.76 8.79,12.74 13.98,17.93 0.55,0 1.02,0.28 1.57,0.82 2.61,2.54 5.46,4.92 8.55,7 h 0.82 c 2.54,2.07 5.39,3.86 8.52,5.39 1.01,0 1.79,0.31 2.34,0.78 3.67,1.6 6.99,2.89 10.12,3.9 h 0.78 c 3.08,1.02 6.48,1.84 10.08,2.39 1.05,0.46 2.14,0.7 3.16,0.7 3.59,0.55 7.23,0.82 10.9,0.82 h 480.12 c -0.47,-9.34 -0.71,-18.67 -0.71,-28.05 2.54,-124.53 42.82,-230.08 120.63,-316.72 l -188.36,-187.53" /><path
         id="path106"
         style="fill:#0f66b0;fill-opacity:1;fill-rule:evenodd;stroke:none"
         d="m 1898.12,1315.35 -43.59,-43.59 c 75.2,-85.08 172.23,-133.09 291.02,-143.99 v 61.49 c -101.64,10.39 -184.14,52.42 -247.43,126.09 m 247.43,-505.862 c -8.79,-3.078 -17.85,-4.687 -27.23,-4.687 H 1458.4 c -1.56,4.148 -2.85,8.32 -3.91,12.469 0,1.601 -0.23,3.351 -0.78,5.46 -0.55,3.129 -0.78,6.219 -0.78,9.301 v 5.508 c 0,3.633 0.23,7.539 0.78,11.641 0.55,1.05 0.78,1.84 0.78,2.34 1.06,4.652 2.35,9.339 3.91,14.031 0.47,1.519 1.01,2.847 1.52,3.898 1.56,3.09 3.4,6.449 5.47,10.082 0.55,1.059 1.29,2.309 2.31,3.91 2.61,4.137 6.01,8.008 10.15,11.68 l 339.34,339.289 c 85.04,-95.43 194.57,-148.63 328.36,-159.53 V 809.488" /><path
         id="path108"
         style="fill:#33b899;fill-opacity:1;fill-rule:evenodd;stroke:none"
         d="m 2172.81,1188.52 c -9.29,0 -18.67,0.23 -28.04,0.74 v -61.49 c 9.37,-0.47 18.75,-0.78 28.04,-0.78 109.49,2.11 202.58,37.15 279.38,105.08 l -43.56,43.59 c -65.39,-56.01 -143.94,-85.07 -235.82,-87.14 m 504.34,-182.15 c -3.67,-8.28 -8.83,-15.819 -15.59,-22.581 l -466.21,-466.91 c 0,0.543 0,0.543 0,0 -3.59,2.07 -6.99,3.859 -10.08,5.461 l -0.78,0.781 c -6.76,4.149 -12.73,9.07 -17.89,14.77 0,0.507 -0.23,0.781 -0.78,0.781 -2.62,3.129 -4.92,6.207 -6.99,9.34 -2.07,3.078 -3.91,6.25 -5.47,9.328 0,0.512 -0.27,1.289 -0.82,2.308 -1.49,3.122 -2.85,6.524 -3.87,10.153 -1.05,3.597 -1.76,7.269 -2.3,10.898 -0.55,0.473 -0.82,1.289 -0.82,2.313 -0.47,3.629 -0.78,7.539 -0.78,11.679 V 1074.1 c 9.37,-0.55 18.75,-0.78 28.04,-0.78 124.49,2.62 230.12,42.77 316.76,120.63 l 187.58,-187.58" /><path
         id="path110"
         style="fill:#8ac73a;fill-opacity:1;fill-rule:evenodd;stroke:none"
         d="m 2596.95,1579.96 h -63.04 c 1.01,-9.37 1.56,-18.91 1.56,-28.83 -3.63,-113.55 -45.9,-205.43 -126.84,-275.47 l 43.56,-43.59 c 92.89,81.45 141.4,187.81 145.54,319.06 0,9.38 -0.23,18.99 -0.78,28.83 m 317.54,-57.58 c 3.13,-8.32 4.65,-17.38 4.65,-27.22 V 835.941 c -4.14,-1.531 -8.28,-2.851 -12.42,-3.91 -1.56,0 -3.4,-0.23 -5.47,-0.781 -3.09,-0.469 -6.21,-0.699 -9.37,-0.699 h -5.4 c -3.67,0 -7.53,0.23 -11.68,0.699 -1.05,0 -1.83,0.309 -2.38,0.781 -4.61,1.059 -9.3,2.379 -13.98,3.91 -1.56,0.539 -2.85,1.047 -3.87,1.598 -3.12,1.481 -6.52,3.32 -10.12,5.391 -1.01,0.55 -2.34,1.332 -3.86,2.379 -4.22,2.543 -8.09,5.711 -11.68,9.3 l -151.76,151.761 -187.58,188.36 c 102.7,91.32 156.13,210.11 160.35,356.4 0,9.38 -0.31,18.99 -0.82,28.83 h 186.02 c 39.45,-2.62 65.9,-21.76 79.37,-57.58" /><path
         id="path112"
         style="fill:#020202;fill-opacity:1;fill-rule:evenodd;stroke:none"
         d="m 2028.16,1292.46 v 15.55 l 34.61,5.51 v 240.19 l -30.19,3.09 v 19.96 h 48.12 c 5.86,0 13.44,0.43 22.7,1.29 9.3,0.86 20.04,1.29 32.22,1.29 14.07,0 26.96,-1.18 38.76,-3.48 11.75,-2.34 21.91,-6.41 30.46,-12.19 8.56,-5.78 15.2,-13.59 19.96,-23.36 4.77,-9.76 7.15,-22.03 7.15,-36.79 0,-9.5 -1.52,-18.48 -4.49,-26.92 -3.01,-8.4 -7.19,-16.05 -12.54,-22.97 -5.39,-6.87 -11.83,-12.97 -19.33,-18.2 -7.5,-5.23 -15.82,-9.45 -25,-12.62 0.62,-0.27 1.25,-0.51 1.83,-0.74 0.63,-0.23 1.25,-0.51 1.84,-0.74 5.74,-2.93 11.29,-7.46 16.68,-13.63 5.35,-6.18 10.51,-13.09 15.47,-20.79 4.92,-7.69 9.64,-15.7 14.18,-23.98 4.53,-8.32 8.82,-15.98 12.89,-22.97 4.1,-7.03 7.93,-12.97 11.56,-17.85 3.59,-4.88 6.99,-7.77 10.16,-8.59 l 19.57,-5.51 v -15.55 h -52.89 c -2.35,0 -4.85,1.8 -7.62,5.47 -2.74,3.67 -5.71,8.48 -8.87,14.37 -3.16,5.94 -6.56,12.7 -10.16,20.32 -3.59,7.65 -7.38,15.35 -11.36,23.16 -3.95,7.81 -8.13,15.43 -12.42,22.89 -4.34,7.46 -8.87,14.03 -13.56,19.69 -4.73,5.66 -9.57,10.12 -14.57,13.36 -5,3.24 -10.2,4.61 -15.55,4.1 -4.29,-0.23 -8.82,-0.35 -13.63,-0.35 -4.84,0 -10.04,0 -15.66,0 v -102.15 l 37.89,-5.31 v -15.55 z m 70.32,264.34 v -120.63 c 1.44,-0.27 3.63,-0.43 6.48,-0.55 2.89,-0.15 5.9,-0.23 9.06,-0.27 3.17,-0.08 6.29,-0.15 9.34,-0.19 3.05,-0.08 5.55,-0.08 7.5,-0.08 9.76,0 18.59,1.21 26.48,3.63 7.86,2.46 14.54,6.25 20.04,11.45 5.47,5.19 9.73,11.83 12.74,19.96 2.97,8.12 4.45,17.85 4.45,29.22 0,9.37 -1.02,17.89 -3.09,25.5 -2.07,7.66 -5.54,14.11 -10.43,19.42 -4.88,5.31 -11.44,9.33 -19.6,12.11 -8.17,2.73 -18.36,3.86 -30.59,3.36 -5.98,-0.24 -11.72,-0.43 -17.19,-0.63 -5.51,-0.19 -10.55,-0.94 -15.19,-2.3 z" /><path
         id="path114"
         style="fill:#050505;fill-opacity:1;fill-rule:nonzero;stroke:none"
         d="m 2267.66,1557.89 c 0,15.94 1.79,30.82 5.46,44.69 3.76,13.94 8.95,26.72 15.63,38.28 6.76,11.64 14.77,22.03 24.06,31.09 9.26,9.07 19.42,16.72 30.47,22.97 11.02,6.33 22.81,11.13 35.31,14.38 12.5,3.32 25.36,5 38.6,5 8.94,0 17.22,-0.55 24.84,-1.57 7.7,-1.05 14.77,-2.3 21.25,-3.75 6.45,-1.48 12.23,-2.93 17.34,-4.37 5.2,-1.49 9.85,-2.62 13.91,-3.44 l -2.97,-53.9 h -19.53 l -9.69,30.93 c -3.98,2.58 -7.93,4.85 -11.87,6.72 -3.99,1.88 -8.24,3.36 -12.81,4.53 -4.5,1.25 -9.38,2.07 -14.69,2.5 -5.24,0.51 -11.06,0.78 -17.5,0.78 -13.24,0 -25.9,-2.73 -37.97,-8.12 -11.99,-5.43 -22.62,-13.4 -31.88,-23.91 -9.17,-10.54 -16.52,-23.51 -22.03,-38.9 -5.43,-15.32 -8.12,-32.82 -8.12,-52.5 0,-17.5 2.19,-34.22 6.56,-50.16 4.45,-15.86 11.02,-29.8 19.69,-41.87 8.75,-12.11 19.53,-21.72 32.34,-28.91 12.89,-7.11 27.85,-10.63 44.85,-10.63 15,0 27.22,1.92 36.71,5.79 9.46,3.94 17.04,9.45 22.66,16.56 l 10.78,28.59 c 2.82,0 5.39,-0.08 7.82,-0.15 2.38,0 5.03,0 7.96,0 v -53.29 c -4.49,-0.31 -9.45,-1.36 -14.84,-3.12 -5.31,-1.68 -11.72,-3.56 -19.22,-5.63 -7.42,-2.1 -16.05,-3.94 -25.94,-5.62 -9.8,-1.64 -21.32,-2.5 -34.53,-2.5 -19.18,0 -36.87,3.4 -53.12,10.16 -16.17,6.75 -30.16,16.28 -42.03,28.59 -11.8,12.38 -21.02,27.07 -27.66,44.06 -6.56,17.07 -9.84,35.98 -9.84,56.72 z" /><path
         id="path116"
         style="fill:#050505;fill-opacity:1;fill-rule:nonzero;stroke:none"
         d="m 0.0390625,20.7813 30.6211375,5 V 252.031 L 0.660156,254.84 v 16.879 H 93.4805 V 254.84 L 63.9492,251.879 V 25.9414 L 95.0391,20.7813 V 6.25 H 0.0390625 Z m 130.0819375,0 28.75,5.1601 V 251.879 l -28.133,2.961 v 16.879 H 308.09 l 5,-48.91 h -18.75 l -7.969,28.75 -94.223,2.191 v -99.691 l 63.442,1.25 5.148,26.722 h 17.5 V 108.59 h -17.5 l -5.148,26.25 -63.442,0.941 V 24.6914 l 101.403,3.2774 17.187,35.3125 16.563,-4.0625 L 319.648,6.25 H 130.121 Z" /><path
         id="path118"
         style="fill:#050505;fill-opacity:1;fill-rule:nonzero;stroke:none"
         d="m 364.449,71.7188 h 15.16 l 10.782,-34.0586 c 3.32,-3.5586 7.23,-6.4883 11.718,-8.75 4.45,-2.3086 9.141,-4.1797 14.063,-5.6289 5,-1.3711 10.156,-2.3399 15.469,-2.9727 5.308,-0.5391 10.468,-0.7773 15.468,-0.7773 6.25,0 12.422,0.8203 18.59,2.5 6.25,1.7578 11.801,4.4492 16.723,8.1289 5,3.75 8.988,8.4687 12.027,14.2187 3.129,5.7031 4.692,12.5313 4.692,20.4609 0,7.2696 -1.801,13.9102 -5.313,19.8516 -3.437,5.9297 -8.09,11.4375 -13.906,16.5586 -5.863,5.082 -12.582,9.922 -20.152,14.531 -7.622,4.571 -15.391,9.098 -23.29,13.598 -8.671,4.68 -17.179,9.601 -25.621,14.84 -8.359,5.312 -15.859,11.011 -22.5,17.191 -6.558,6.25 -11.949,13.16 -16.089,20.781 -4.071,7.688 -6.098,16.329 -6.098,25.93 0,7.899 1.25,15.039 3.75,21.41 2.578,6.449 5.937,12.071 10,16.879 4.137,4.879 8.988,9.102 14.527,12.649 5.512,3.523 11.289,6.41 17.352,8.601 6.129,2.18 12.34,3.789 18.59,4.84 6.328,1.02 12.339,1.559 17.968,1.559 8.321,0 15.981,-0.43 22.969,-1.25 7.07,-0.739 13.363,-1.789 18.902,-3.118 5.629,-1.371 10.469,-2.812 14.54,-4.382 4.058,-1.477 7.339,-2.93 9.839,-4.368 V 213.59 h -14.531 l -13.437,32.82 c -1.993,1.75 -4.45,3.32 -7.34,4.68 -2.93,1.332 -6.211,2.5 -9.852,3.441 -3.551,0.938 -7.34,1.598 -11.398,2.028 -4.071,0.39 -8.129,0.632 -12.192,0.632 -4.687,0 -9.839,-0.742 -15.468,-2.191 -5.621,-1.48 -10.903,-3.871 -15.782,-7.191 -4.918,-3.36 -9.058,-7.77 -12.5,-13.278 -3.359,-5.551 -5,-12.461 -5,-20.781 0,-6.559 1.563,-12.621 4.692,-18.129 3.199,-5.422 7.418,-10.461 12.648,-15.152 5.321,-4.61 11.41,-9.02 18.281,-13.278 6.961,-4.179 14.219,-8.242 21.719,-12.191 8.949,-4.918 17.973,-10 27.031,-15.309 9.141,-5.242 17.348,-11.062 24.54,-17.5 7.261,-6.492 13.199,-13.601 17.808,-21.41 4.57,-7.8122 6.871,-16.7224 6.871,-26.7224 0,-12.7266 -2.418,-23.5898 -7.179,-32.6484 C 518.711,32.3398 512.27,24.8789 504.141,19.0586 496.02,13.1992 486.641,8.94922 476.02,6.25 465.391,3.67188 454.18,2.33984 442.422,2.33984 c -8.551,0 -16.953,0.46875 -25.152,1.41016 -8.25,0.85938 -15.899,1.98828 -22.969,3.44141 -7,1.4375 -13.129,3.00779 -18.442,4.68749 -5.238,1.75 -9.019,3.3516 -11.41,4.8399 z" /><path
         id="path120"
         style="fill:#050505;fill-opacity:1;fill-rule:nonzero;stroke:none"
         d="m 652.301,20.7813 32.347,5.1601 V 250.16 l -28.277,2.809 v 18.75 h 45 c 5.391,0 12.418,0.351 21.09,1.09 8.75,0.82 18.789,1.25 30.16,1.25 13.117,0 25.149,-1.09 36.09,-3.278 11.019,-2.191 20.508,-6.011 28.437,-11.402 8.012,-5.43 14.223,-12.738 18.59,-21.879 4.461,-9.059 6.723,-20.469 6.723,-34.219 0,-8.871 -1.41,-17.261 -4.223,-25.16 -2.726,-7.812 -6.558,-14.961 -11.558,-21.402 -5,-6.489 -11.059,-12.149 -18.129,-17.028 -6.992,-4.921 -14.762,-8.832 -23.281,-11.722 0.511,-0.239 1.019,-0.469 1.57,-0.778 0.621,-0.242 1.25,-0.429 1.871,-0.632 5.309,-2.727 10.469,-6.989 15.469,-12.809 5.082,-5.738 9.922,-12.191 14.531,-19.3711 4.57,-7.1875 8.949,-14.6484 13.129,-22.3476 4.25,-7.7305 8.281,-14.8399 12.031,-21.4102 3.828,-6.5625 7.418,-12.1406 10.777,-16.7109 3.442,-4.6094 6.602,-7.2696 9.532,-7.9688 l 18.281,-5.1601 V 6.25 H 833.09 c -2.192,0 -4.61,1.71875 -7.192,5.1602 -2.5,3.4296 -5.277,7.8906 -8.277,13.4296 -2.93,5.5118 -6.062,11.8008 -9.383,18.9102 -3.359,7.0703 -6.867,14.2617 -10.617,21.5586 -3.672,7.2734 -7.5,14.4219 -11.57,21.4102 -4.063,6.9531 -8.281,13.121 -12.653,18.4412 -4.378,5.309 -8.91,9.449 -13.597,12.5 -4.68,3 -9.531,4.25 -14.531,3.75 -3.981,-0.238 -8.239,-0.32 -12.809,-0.32 -4.492,0 -9.34,0 -14.531,0 V 25.7813 l 35.308,-5 V 6.25 H 652.301 Z M 717.93,140.469 c 1.332,-0.309 3.359,-0.547 6.09,-0.629 2.699,-0.11 5.511,-0.231 8.441,-0.309 2.891,0 5.777,-0.082 8.59,-0.152 2.898,0 5.32,0 7.187,0 9.063,0 17.231,1.133 24.532,3.43 7.39,2.273 13.64,5.82 18.75,10.632 5.199,4.879 9.14,11.09 11.878,18.59 2.813,7.578 4.223,16.719 4.223,27.348 0,8.742 -1.019,16.641 -2.973,23.742 -1.878,7.188 -5.117,13.211 -9.687,18.129 -4.492,5 -10.582,8.75 -18.281,11.25 -7.621,2.582 -17.11,3.672 -28.442,3.281 -5.617,-0.23 -11.008,-0.429 -16.09,-0.621 -5.117,-0.238 -9.847,-0.941 -14.218,-2.191 z" /><path
         id="path122"
         style="fill:#050505;fill-opacity:1;fill-rule:nonzero;stroke:none"
         d="m 898.281,20.7813 30.629,5 V 252.031 l -30,2.809 v 16.879 h 92.809 V 254.84 l -29.528,-2.961 V 25.9414 l 31.09,-5.1601 V 6.25 h -95 z" /><path
         id="path124"
         style="fill:#050505;fill-opacity:1;fill-rule:nonzero;stroke:none"
         d="m 1028.98,20.7813 28.91,5.1601 V 252.031 l -28.28,2.809 v 16.879 h 43.28 c 7.5,0.191 16.41,0.66 26.72,1.402 10.31,0.711 22.38,1.02 36.25,0.938 13.63,-0.11 25.7,-1.559 36.25,-4.368 10.51,-2.812 19.3,-6.839 26.41,-12.031 7.07,-5.121 12.42,-11.371 16.09,-18.75 3.63,-7.308 5.47,-15.551 5.47,-24.691 0,-7.809 -1.06,-15.27 -3.13,-22.34 -1.99,-7.109 -5,-13.52 -9.06,-19.219 -4.06,-5.629 -9.3,-10.551 -15.62,-14.691 -6.25,-4.059 -13.68,-7.11 -22.19,-9.059 9.37,-0.121 18.16,-1.719 26.4,-4.851 8.21,-3.118 15.36,-7.5 21.41,-13.118 6.02,-5.632 10.78,-12.421 14.22,-20.32 3.51,-7.922 5.31,-16.7108 5.31,-26.4022 0,-11.5586 -2.26,-22.2696 -6.72,-32.0274 -4.49,-9.8125 -11.32,-18.2812 -20.47,-25.4726 -9.18,-7.1875 -20.7,-12.8086 -34.53,-16.87896 -13.86,-3.9414 -30.15,-5.92968 -48.9,-5.92968 -4.92,0 -9.96,0.10937 -15.16,0.30859 -5.12,0.12109 -10.08,0.26953 -14.84,0.47266 -4.81,0.23047 -9.34,0.46875 -13.6,0.77734 -4.18,0.3125 -7.73,0.58203 -10.62,0.78125 h -43.6 z m 62.19,135.6287 c 2.81,-0.551 5.98,-0.898 9.53,-1.101 3.64,-0.11 7.27,-0.149 10.94,-0.149 3.75,0 7.38,0 10.94,0 3.63,0.07 6.91,0.149 9.84,0.149 8.63,0 16.41,1.101 23.28,3.281 6.96,2.191 12.85,5.512 17.66,10 4.88,4.461 8.63,10 11.25,16.57 2.69,6.559 4.06,14.141 4.06,22.809 0,7.89 -1.52,14.84 -4.53,20.781 -3.05,6.02 -7.26,11.02 -12.66,15 -5.31,4.059 -11.64,7.07 -18.9,9.059 -7.19,1.961 -15.08,2.972 -23.6,2.972 -2.18,0 -5,0 -8.43,0 -3.44,0.078 -7.03,0.078 -10.78,0 -3.68,-0.121 -7.15,-0.39 -10.47,-0.781 -3.25,-0.43 -5.86,-1.051 -7.82,-1.879 z m 0,-127.0311 c 1.45,-0.9375 3.83,-1.8398 7.19,-2.6601 3.44,-0.8594 7.19,-1.5586 11.25,-2.1875 4.14,-0.5508 8.44,-1.0118 12.81,-1.4102 4.38,-0.3125 8.36,-0.4609 12.03,-0.4609 9.26,0 18.01,0.9296 26.25,2.8086 8.21,1.9531 15.35,5.082 21.41,9.371 6.13,4.379 10.98,10.0391 14.53,17.0391 3.52,7.0703 5.31,15.6602 5.31,25.7813 0,19.6796 -5.43,34.0588 -16.25,43.1208 -10.74,9.059 -26.83,13.598 -48.28,13.598 -3.98,0 -8.04,0 -12.19,0 -4.18,0.07 -8.28,0.07 -12.34,0 -3.98,0 -7.81,-0.078 -11.56,-0.16 -3.67,-0.117 -7.03,-0.309 -10.16,-0.629 z" /><path
         id="path126"
         style="fill:#050505;fill-opacity:1;fill-rule:nonzero;stroke:none"
         d="m 1271.05,20.7813 28.75,5.1601 V 251.879 l -28.12,2.961 v 16.879 h 177.34 l 5,-48.91 h -18.75 l -7.97,28.75 -94.21,2.191 v -99.691 l 63.43,1.25 5.16,26.722 h 17.5 V 108.59 h -17.5 l -5.16,26.25 -63.43,0.941 V 24.6914 l 101.4,3.2774 17.19,35.3125 16.56,-4.0625 -7.65,-52.9688 h -189.54 z" /><path
         id="path128"
         style="fill:#050505;fill-opacity:1;fill-rule:nonzero;stroke:none"
         d="m 1493.83,20.7813 32.34,5.1601 V 250.16 l -28.28,2.809 v 18.75 h 45 c 5.39,0 12.42,0.351 21.09,1.09 8.75,0.82 18.79,1.25 30.16,1.25 13.13,0 25.16,-1.09 36.09,-3.278 11.02,-2.191 20.51,-6.011 28.44,-11.402 8.01,-5.43 14.22,-12.738 18.6,-21.879 4.45,-9.059 6.71,-20.469 6.71,-34.219 0,-8.871 -1.4,-17.261 -4.21,-25.16 -2.74,-7.812 -6.57,-14.961 -11.57,-21.402 -5,-6.489 -11.05,-12.149 -18.12,-17.028 -6.99,-4.921 -14.77,-8.832 -23.28,-11.722 0.5,-0.239 1.01,-0.469 1.56,-0.778 0.62,-0.242 1.25,-0.429 1.87,-0.632 5.32,-2.727 10.47,-6.989 15.47,-12.809 5.08,-5.738 9.92,-12.191 14.53,-19.3711 4.57,-7.1875 8.95,-14.6484 13.13,-22.3476 4.26,-7.7305 8.28,-14.8399 12.03,-21.4102 3.83,-6.5625 7.42,-12.1406 10.78,-16.7109 3.44,-4.6094 6.6,-7.2696 9.53,-7.9688 l 18.28,-5.1601 V 6.25 h -49.37 c -2.19,0 -4.61,1.71875 -7.19,5.1602 -2.5,3.4296 -5.27,7.8906 -8.28,13.4296 -2.93,5.5118 -6.05,11.8008 -9.37,18.9102 -3.36,7.0703 -6.88,14.2617 -10.63,21.5586 -3.67,7.2734 -7.5,14.4219 -11.56,21.4102 -4.06,6.9531 -8.28,13.121 -12.66,18.4412 -4.37,5.309 -8.9,9.449 -13.59,12.5 -4.69,3 -9.53,4.25 -14.53,3.75 -3.99,-0.238 -8.25,-0.32 -12.82,-0.32 -4.49,0 -9.33,0 -14.53,0 V 25.7813 l 35.32,-5 V 6.25 h -100.94 z m 65.62,119.6877 c 1.33,-0.309 3.36,-0.547 6.1,-0.629 2.69,-0.11 5.5,-0.231 8.43,-0.309 2.9,0 5.79,-0.082 8.6,-0.152 2.89,0 5.31,0 7.19,0 9.06,0 17.22,1.133 24.53,3.43 7.38,2.273 13.63,5.82 18.75,10.632 5.19,4.879 9.14,11.09 11.87,18.59 2.81,7.578 4.22,16.719 4.22,27.348 0,8.742 -1.02,16.641 -2.97,23.742 -1.87,7.188 -5.12,13.211 -9.69,18.129 -4.49,5 -10.58,8.75 -18.28,11.25 -7.61,2.582 -17.11,3.672 -28.43,3.281 -5.63,-0.23 -11.02,-0.429 -16.1,-0.621 -5.12,-0.238 -9.84,-0.941 -14.22,-2.191 z" /><path
         id="path130"
         style="fill:#050505;fill-opacity:1;fill-rule:nonzero;stroke:none"
         d="m 1722.11,20.7813 24.53,5 88.91,245.9377 h 28.75 l 85.15,-245.7776 27.19,-5.1601 V 6.25 h -90.31 v 14.5313 l 28.44,5.1601 -18.44,55 h -102.66 l -18.44,-55 28.6,-5.1601 V 6.25 h -81.72 z m 167.5,80.1597 -27.81,83.438 -16.25,51.402 -45.16,-134.84 z" /><path
         id="path132"
         style="fill:#050505;fill-opacity:1;fill-rule:nonzero;stroke:none"
         d="m 2084.45,20.7813 28.91,5.1601 V 251.879 l -28.28,2.961 v 16.879 h 45 c 7.58,0 14.14,0.082 19.69,0.312 5.62,0.199 10.82,0.469 15.62,0.778 4.77,0.39 9.45,0.711 14.06,0.941 4.57,0.199 9.53,0.309 14.85,0.309 22.07,0.082 41.17,-2.809 57.34,-8.75 16.25,-5.86 29.61,-14.329 40.16,-25.469 10.62,-11.051 18.47,-24.488 23.59,-40.309 5.2,-15.859 7.81,-33.711 7.81,-53.59 0,-22.5 -3.51,-42.621 -10.47,-60.3199 -6.99,-17.6094 -16.52,-32.5 -28.59,-44.6797 -12.11,-12.1914 -26.41,-21.4101 -42.97,-27.6601 -16.48,-6.25005 -34.14,-9.14067 -52.97,-8.75005 -8.43,0.23828 -17.3,0.58984 -26.56,1.08984 -9.3,0.55079 -19.65,0.78907 -31.09,0.78907 -7.74,0 -15.43,-0.07813 -23.13,-0.16016 -7.62,0 -15.27,0 -22.97,0 z m 62.19,7.9687 c 7.27,-1.9883 14.77,-3.4414 22.5,-4.3711 7.81,-0.8594 16.13,-1.1797 25,-0.9375 12.5,0.3906 24.41,2.8906 35.78,7.5 11.33,4.6797 21.33,11.6406 30,20.9375 8.63,9.3711 15.51,21.1328 20.63,35.3125 5.07,14.1406 7.65,30.9296 7.65,50.3086 0,20.199 -2.46,37.699 -7.34,52.5 -4.81,14.879 -11.72,27.191 -20.78,36.879 -8.99,9.762 -19.92,17.031 -32.81,21.711 -12.82,4.691 -27.19,6.762 -43.13,6.25 -4.69,-0.11 -8.83,-0.27 -12.34,-0.461 -3.56,-0.238 -6.8,-0.43 -9.69,-0.629 -2.81,-0.23 -5.47,-0.551 -7.97,-0.941 -2.42,-0.43 -4.92,-0.86 -7.5,-1.25 z" /><path
         id="path134"
         style="fill:#050505;fill-opacity:1;fill-rule:nonzero;stroke:none"
         d="m 2355.9,20.7813 28.75,5.1601 V 251.879 l -28.13,2.961 v 16.879 h 177.35 l 5,-48.91 h -18.75 l -7.97,28.75 -94.22,2.191 v -99.691 l 63.44,1.25 5.15,26.722 h 17.5 V 108.59 h -17.5 l -5.15,26.25 -63.44,0.941 V 24.6914 l 101.41,3.2774 17.18,35.3125 16.57,-4.0625 L 2545.43,6.25 H 2355.9 Z" /><path
         id="path136"
         style="fill:#050505;fill-opacity:1;fill-rule:nonzero;stroke:none"
         d="m 2668.24,130 c 0,14.691 1.72,28.441 5.16,41.25 3.44,12.809 8.2,24.57 14.37,35.309 6.14,10.711 13.48,20.203 22.03,28.441 8.52,8.32 17.9,15.391 28.13,21.25 10.19,5.82 21.02,10.23 32.5,13.281 11.56,3.008 23.44,4.528 35.62,4.528 8.13,0 15.71,-0.539 22.82,-1.559 7.07,-0.941 13.59,-2.109 19.53,-3.441 5.94,-1.25 11.29,-2.579 16.09,-3.899 4.77,-1.371 9.06,-2.461 12.81,-3.281 l -2.81,-49.539 h -18.12 l -8.91,28.601 c -3.67,2.379 -7.3,4.411 -10.94,6.09 -3.67,1.758 -7.57,3.168 -11.72,4.219 -4.06,1.02 -8.55,1.762 -13.43,2.191 -4.81,0.508 -10.16,0.778 -16.1,0.778 -12.18,0 -23.86,-2.5 -35,-7.5 -11.17,-5 -21.01,-12.34 -29.53,-22.028 -8.44,-9.691 -15.15,-21.64 -20.15,-35.781 -5,-14.07 -7.5,-30.16 -7.5,-48.289 0,-16.242 2.03,-31.711 6.09,-46.4022 4.06,-14.6094 10.08,-27.4571 18.12,-38.5977 8.01,-11.0508 17.97,-19.8398 29.85,-26.4023 11.87,-6.5586 25.55,-9.8399 41.09,-9.8399 13.83,0 25.16,1.75 33.91,5.3125 8.75,3.6289 15.66,8.668 20.78,15.1484 l 10,26.4102 c 2.58,0 5,-0.0781 7.19,-0.1602 2.26,0 4.72,0 7.34,0 V 17.0313 c -4.18,-0.2305 -8.75,-1.1719 -13.75,-2.8125 -4.92,-1.5586 -10.78,-3.3594 -17.66,-5.30864 -6.79,-1.87891 -14.68,-3.60157 -23.75,-5.16016 -9.06,-1.55859 -19.68,-2.33984 -31.87,-2.33984 -17.62,0 -33.91,3.12109 -48.91,9.37114 -14.92,6.3281 -27.81,15.1601 -38.75,26.4101 -10.86,11.3281 -19.33,24.8789 -25.47,40.6172 -6.05,15.7109 -9.06,33.1324 -9.06,52.1914 z" /><path
         id="path138"
         style="fill:#050505;fill-opacity:1;fill-rule:nonzero;stroke:none"
         d="m 2895.16,20.7813 24.53,5 88.9,245.9377 h 28.75 l 85.16,-245.7776 27.19,-5.1601 V 6.25 h -90.31 v 14.5313 l 28.43,5.1601 -18.43,55 h -102.66 l -18.44,-55 28.6,-5.1601 V 6.25 h -81.72 z m 167.5,80.1597 -27.82,83.438 -16.25,51.402 -45.15,-134.84 z" /><path
         id="path140"
         style="fill:#050505;fill-opacity:1;fill-rule:nonzero;stroke:none"
         d="m 3176.09,71.7188 h 15.16 l 10.78,-34.0586 c 3.32,-3.5586 7.23,-6.4883 11.72,-8.75 4.45,-2.3086 9.14,-4.1797 14.06,-5.6289 5,-1.3711 10.16,-2.3399 15.47,-2.9727 5.31,-0.5391 10.47,-0.7773 15.47,-0.7773 6.25,0 12.42,0.8203 18.59,2.5 6.25,1.7578 11.8,4.4492 16.72,8.1289 5,3.75 8.99,8.4687 12.03,14.2187 3.13,5.7031 4.69,12.5313 4.69,20.4609 0,7.2696 -1.8,13.9102 -5.31,19.8516 -3.44,5.9297 -8.09,11.4375 -13.91,16.5586 -5.86,5.082 -12.58,9.922 -20.15,14.531 -7.62,4.571 -15.39,9.098 -23.29,13.598 -8.67,4.68 -17.18,9.601 -25.62,14.84 -8.36,5.312 -15.86,11.011 -22.5,17.191 -6.56,6.25 -11.95,13.16 -16.09,20.781 -4.07,7.688 -6.1,16.329 -6.1,25.93 0,7.899 1.25,15.039 3.75,21.41 2.58,6.449 5.94,12.071 10,16.879 4.14,4.879 8.99,9.102 14.53,12.649 5.51,3.523 11.29,6.41 17.35,8.601 6.13,2.18 12.34,3.789 18.59,4.84 6.33,1.02 12.35,1.559 17.97,1.559 8.32,0 15.98,-0.43 22.97,-1.25 7.07,-0.739 13.36,-1.789 18.91,-3.118 5.62,-1.371 10.46,-2.812 14.53,-4.382 4.06,-1.477 7.34,-2.93 9.84,-4.368 V 213.59 h -14.53 l -13.44,32.82 c -1.99,1.75 -4.45,3.32 -7.34,4.68 -2.93,1.332 -6.21,2.5 -9.85,3.441 -3.55,0.938 -7.34,1.598 -11.4,2.028 -4.07,0.39 -8.13,0.632 -12.19,0.632 -4.69,0 -9.84,-0.742 -15.47,-2.191 -5.62,-1.48 -10.9,-3.871 -15.78,-7.191 -4.92,-3.36 -9.06,-7.77 -12.5,-13.278 -3.36,-5.551 -5,-12.461 -5,-20.781 0,-6.559 1.56,-12.621 4.69,-18.129 3.2,-5.422 7.42,-10.461 12.65,-15.152 5.32,-4.61 11.41,-9.02 18.29,-13.278 6.95,-4.179 14.21,-8.242 21.71,-12.191 8.95,-4.918 17.97,-10 27.03,-15.309 9.15,-5.242 17.35,-11.062 24.54,-17.5 7.26,-6.492 13.2,-13.601 17.81,-21.41 4.57,-7.8122 6.87,-16.7224 6.87,-26.7224 0,-12.7266 -2.42,-23.5898 -7.18,-32.6484 -4.81,-9.0704 -11.25,-16.5313 -19.38,-22.3516 -8.12,-5.8594 -17.5,-10.10938 -28.12,-12.8086 -10.63,-2.57812 -21.84,-3.91016 -33.6,-3.91016 -8.55,0 -16.95,0.46875 -25.15,1.41016 -8.25,0.85938 -15.9,1.98828 -22.97,3.44141 -6.99,1.4375 -13.13,3.00779 -18.44,4.68749 -5.23,1.75 -9.02,3.3516 -11.41,4.8399 z" /><path
         id="path142"
         style="fill:#050505;fill-opacity:1;fill-rule:nonzero;stroke:none"
         d="m 3412.5,20.7813 41.88,5.1601 V 252.66 l -62.04,-3.441 -12.03,-29.219 -15.47,-0.309 4.22,52.028 h 203.6 l -0.32,-52.5 -14.06,-1.559 -8.9,31.719 -61.72,3.281 V 25.9414 l 44.68,-5.1601 V 6.25 H 3412.5 Z" /><path
         id="path144"
         style="fill:#050505;fill-opacity:1;fill-rule:nonzero;stroke:none"
         d="m 3595.04,20.7813 30.62,5 V 252.031 l -30,2.809 v 16.879 h 92.82 V 254.84 l -29.53,-2.961 V 25.9414 l 31.09,-5.1601 V 6.25 h -95 z" /><path
         id="path146"
         style="fill:#050505;fill-opacity:1;fill-rule:nonzero;stroke:none"
         d="m 3725.78,20.7813 28.91,5.1601 V 250.16 l -28.28,2.809 v 18.75 h 92.03 v -18.75 l -30.32,-2.809 -0.31,-224.6912 91.41,4.0625 21.09,40.6289 14.85,-7.3516 -11.1,-56.5586 h -178.28 z" /><path
         id="path148"
         style="fill:#050505;fill-opacity:1;fill-rule:nonzero;stroke:none"
         d="m 3938.36,20.7813 28.91,5.1601 V 250.16 l -28.29,2.809 v 18.75 h 92.04 v -18.75 l -30.32,-2.809 -0.31,-224.6912 91.41,4.0625 21.09,40.6289 14.84,-7.3516 L 4116.64,6.25 h -178.28 z" /><path
         id="path150"
         style="fill:#050505;fill-opacity:1;fill-rule:nonzero;stroke:none"
         d="m 4133.16,20.7813 24.54,5 88.9,245.9377 h 28.75 l 85.16,-245.7776 27.19,-5.1601 V 6.25 h -90.32 v 14.5313 l 28.44,5.1601 -18.44,55 h -102.65 l -18.44,-55 28.59,-5.1601 V 6.25 h -81.72 z m 167.5,80.1597 -27.81,83.438 -16.25,51.402 -45.15,-134.84 z" /><path
         id="path152"
         style="fill:#050505;fill-opacity:1;fill-rule:nonzero;stroke:none"
         d="m 1888.59,1436.84 33.13,5.31 v 245.78 l -32.5,3.12 v 18.13 H 1990 v -18.13 l -32.03,-3.43 v -245.16 l 33.75,-5.62 v -15.79 h -103.13 z" /></g></g></svg>